<svg xmlns="http://www.w3.org/2000/svg" fill="none" viewBox="0 0 17 16" class="design-iconfont">
  <path transform="translate(1.99998026 1.33333333)" d="M0 12.67L0 12.75C0.04 13.08 0.33 13.33 0.66 13.33L5.25 13.33C4.76 12.64 4.57 11.77 4.72 10.93C4.87 10.09 5.36 9.34 6.07 8.87L6.1 8.81C6.49 7.21 7.88 6.07 9.52 6L9.67 6C10.52 6 11.35 6.3 12 6.84L12 4L8 0L0.67 0L0.59 0.01C0.26 0.04 0 0.33 0 0.66L0 12.67Z M1.85704 2.49431L1.85704 4.09431L7.88704 4.09431L7.88704 2.49431L1.85704 2.49431Z M1.85704 6.21772L1.85704 7.81772L5.16704 7.81772L5.16704 6.21772L1.85704 6.21772Z M11.9989 9.66333C11.9989 8.37333 10.9589 7.33333 9.66886 7.33333C8.37886 7.33333 7.32886 8.37333 7.32886 9.66333L7.33886 9.73333C6.47886 9.97333 5.90886 10.8033 6.00886 11.6933C6.10886 12.5833 6.82886 13.2733 7.71886 13.3333L7.82886 13.3333L11.4989 13.3333L11.6089 13.3333C12.5089 13.2733 13.2289 12.5833 13.3289 11.6933C13.4189 10.8033 12.8589 9.97333 11.9989 9.73333L11.9989 9.66333Z" stroke="#fff" stroke-dasharray="0 0"/>
</svg>
