<svg xmlns="http://www.w3.org/2000/svg" fill="none" viewBox="0 0 16 16" class="design-iconfont">
  <g fill-rule="evenodd" fill="#fff">
    <path transform="translate(7 1)" d="M0.99,4.36C1.1,4.26 1.16,4.11 1.16,3.96L1.16,0.58C1.16,0.26 0.9,0 0.58,0C0.26,0 0,0.26 0,0.58L0,3.95C0,4.11 0.06,4.26 0.17,4.36C0.28,4.47 0.43,4.53 0.59,4.52C0.74,4.52 0.88,4.47 0.99,4.36Z"/>
    <path transform="translate(1.2505007 2.3330201)" d="M6.18,9.85C3.47,9.89 1.24,7.73 1.19,5.02C1.2,3.42 2.01,1.93 3.34,1.05C3.47,0.97 3.56,0.83 3.59,0.69C3.62,0.54 3.59,0.38 3.51,0.25C3.39,0.09 3.2,0 3,0.01C2.88,0.01 2.76,0.04 2.67,0.1C1.01,1.19 0.01,3.04 0,5.02C0.06,8.37 2.82,11.05 6.18,11C9.54,11.05 12.3,8.37 12.36,5.02C12.35,3.04 11.34,1.19 9.69,0.1C9.42,-0.08 9.05,-0.02 8.86,0.25C8.77,0.37 8.73,0.53 8.76,0.68C8.79,0.83 8.88,0.96 9.01,1.05C10.34,1.93 11.15,3.42 11.16,5.02C11.11,7.72 8.89,9.88 6.18,9.85Z"/>
  </g>
</svg>
