<svg xmlns="http://www.w3.org/2000/svg" fill="none" viewBox="0 0 28 28" class="design-iconfont">
  <path fill-rule="evenodd" transform="translate(.00009148)" d="M28,14C28,6.27 21.73,0 14,0C6.27,0 0,6.27 0,14C0,21.73 6.27,28 14,28C21.73,28 28,21.73 28,14Z" fill="#eeeffd"/>
  <path fill-rule="evenodd" transform="translate(7.87509148 8.1666621)" d="M2.33 10.5C2.01 10.5 1.75 10.76 1.75 11.08C1.75 11.41 2.01 11.67 2.33 11.67L9.92 11.67C10.24 11.67 10.5 11.41 10.5 11.08C10.5 10.76 10.24 10.5 9.92 10.5L2.33 10.5Z M1.17 9.33L11.08 9.33C11.73 9.33 12.25 8.81 12.25 8.17L12.25 1.17C12.25 0.86 12.13 0.56 11.91 0.34C11.69 0.12 11.39 2.22045e-16 11.08 2.22045e-16L1.17 2.22045e-16C0.86 2.22045e-16 0.56 0.12 0.34 0.34C0.12 0.56 0 0.86 0 1.17L0 8.17C0 8.81 0.52 9.33 1.17 9.33Z M4.11 6.54584L4.45 6.45584C4.86 6.34584 5.28 6.57584 5.41 6.97584L5.43 7.02584L5.52 7.36584C5.88 7.45584 6.25 7.45584 6.61 7.39584L6.73 7.36584L6.82 7.02584C6.93 6.61584 7.34 6.36584 7.75 6.44584L7.8 6.45584L8.14 6.54584C8.4 6.26584 8.59 5.94584 8.72 5.58584L8.75 5.48584L8.5 5.23584C8.21 4.93584 8.19 4.45584 8.46 4.13584L8.75 3.84584C8.64 3.48584 8.45 3.14584 8.21 2.86584L8.14 2.78584L7.8 2.87584C7.39 2.98584 6.97 2.75584 6.84 2.35584L6.82 2.30584L6.73 1.96584C6.53 1.91584 6.33 1.89584 6.13 1.89584C5.96 1.89584 5.8 1.90584 5.64 1.93584L5.52 1.96584L5.43 2.30584C5.32 2.71584 4.91 2.96584 4.5 2.88584L4.45 2.87584L4.11 2.78584C3.85 3.06584 3.66 3.38584 3.53 3.74584L3.5 3.84584L3.75 4.09584C4.04 4.39584 4.06 4.87584 3.79 5.19584L3.5 5.48584C3.61 5.84584 3.8 6.18584 4.04 6.47584L4.11 6.54584Z M4.98021 4.66225C4.98021 5.30225 5.49021 5.82225 6.12021 5.82225C6.76021 5.82225 7.27021 5.30225 7.27021 4.66225C7.27021 4.03225 6.76021 3.51225 6.12021 3.51225C5.49021 3.51225 4.98021 4.03225 4.98021 4.66225Z" fill="#5c6bbf"/>
</svg>
