<svg xmlns="http://www.w3.org/2000/svg" fill="none" viewBox="0 0 16 17" class="design-iconfont">
  <path transform="translate(1.78740818 .50576985)" d="M6.02 15.06C6.15 15.11 6.28 15.11 6.41 15.06L6.76 14.95C10.15 13.82 12.43 10.65 12.43 7.09L12.43 3.6C12.43 3.06 12.11 2.56 11.61 2.34L6.47 0.05C6.3 -0.02 6.12 -0.02 5.96 0.05L0.82 2.34C0.32 2.56 0 3.05 0 3.6L0 7.09C0 10.65 2.28 13.82 5.66 14.95L6.02 15.06Z" stroke="#fff" stroke-dasharray="0 0"/>
  <path fill-rule="evenodd" transform="translate(3.79922692 3.46363262)" d="M3.80234 0L4.60234 0L4.60234 2.22L3.80234 2.22L3.80234 0Z M1.16092 1.27106L0.657465 1.89278L2.38273 3.28987L2.88619 2.66815L1.16092 1.27106Z M7.24375 1.27106L7.74721 1.89278L6.02194 3.28987L5.51849 2.66815L7.24375 1.27106Z M0.179961 5.54996L0 4.77046L2.1631 4.27107L2.34306 5.05057L0.179961 5.54996Z M8.40467 4.77046L8.22471 5.54996L6.06161 5.05057L6.24157 4.27107L8.40467 4.77046Z M2.72642 8.19264L2.00738 7.84194L2.98057 5.84662L3.6996 6.19732L2.72642 8.19264Z M6.39729 7.84194L5.67825 8.19264L4.70507 6.19732L5.4241 5.84662L6.39729 7.84194Z" fill="#fff"/>
</svg>
