<svg xmlns="http://www.w3.org/2000/svg" fill="none" viewBox="0 0 16 17" class="design-iconfont">
  <path fill-rule="evenodd" transform="translate(0 .00272358)" d="M1.45453 14.5442L14.5445 14.5442L14.5445 6.18422L7.78453 1.45421L1.45453 6.17421L1.45453 14.5442Z M16 14.54L16 6.18C16 5.71 15.77 5.27 15.38 4.99L8.62 0.26C8.11 -0.1 7.42 -0.09 6.92 0.29L0.59 5.01C0.22 5.28 -1.65436e-24 5.71 -1.65436e-24 6.17L-1.65436e-24 14.54C-1.65436e-24 15.35 0.65 16 1.45 16L14.55 16C15.35 16 16 15.35 16 14.54Z M11.1136 10.7457C11.1136 10.3457 10.7936 10.0157 10.3936 10.0157L5.61364 10.0157C5.21364 10.0157 4.88364 10.3457 4.88364 10.7457L4.88364 10.7557C4.88364 10.9557 4.96364 11.1357 5.09364 11.2757C5.23364 11.4157 5.41364 11.4857 5.61364 11.4857L10.3936 11.4857C10.7936 11.4857 11.1136 11.1657 11.1136 10.7557L11.1136 10.7457Z" fill="#373f51"/>
</svg>
