<svg xmlns="http://www.w3.org/2000/svg" fill="none" viewBox="0 0 16 16" class="design-iconfont">
  <g fill-rule="evenodd">
    <path transform="translate(2.00009148 3)" d="M11.33 12C11.7 12 12 11.7 12 11.33L12 5.11C10.55 5.62 8.93 5.25 7.84 4.16C6.75 3.07 6.38 1.45 6.89 0L0.67 0C0.3 0 0 0.3 0 0.67L0 11.33C0 11.7 0.3 12 0.67 12L11.33 12Z" fill="#5c6bbf"/>
    <path transform="translate(10.00009148 1.33333333)" d="M5.33,2.67C5.33,1.19 4.14,0 2.67,0C1.19,0 0,1.19 0,2.67C0,4.14 1.19,5.33 2.67,5.33C4.14,5.33 5.33,4.14 5.33,2.67Z" fill="#ff4137"/>
  </g>
</svg>
