<svg xmlns="http://www.w3.org/2000/svg" fill="none" viewBox="0 0 16 16" class="design-iconfont">
  <path fill-rule="evenodd" transform="translate(1.3334196 1.33332812)" d="M11.64,11.33C11.24,12.02 10.55,12.5 9.77,12.63L10.19,13.91C12.03,13.5 13.33,11.88 13.33,10L13.33,6.67C13.33,2.98 10.35,0 6.67,0C2.99,0 0,2.98 0,6.67L0,10C0,10.35 0.14,10.69 0.39,10.94C0.64,11.19 0.98,11.33 1.33,11.33L3.33,11.33C3.69,11.33 4.03,11.19 4.28,10.94C4.53,10.69 4.67,10.35 4.67,10L4.67,7.33C4.67,6.98 4.53,6.64 4.28,6.39C4.03,6.14 3.69,6 3.33,6L1.37,6C1.71,3.33 3.98,1.33 6.67,1.33C9.35,1.33 11.62,3.33 11.96,6L10,6C9.65,6 9.31,6.14 9.06,6.39C8.81,6.64 8.67,6.98 8.67,7.33L8.67,10C8.67,10.35 8.81,10.69 9.06,10.94C9.31,11.19 9.65,11.33 10,11.33L11.64,11.33Z" fill="#5c6bbf"/>
</svg>
