<svg xmlns="http://www.w3.org/2000/svg" fill="none" viewBox="0 0 16 16" class="design-iconfont">
  <path transform="translate(1.33333333 2)" d="M0 0.67L0 11.33C0 11.7 0.3 12 0.67 12L12.67 12C13.03 12 13.33 11.7 13.33 11.33L13.33 0.67C13.33 0.3 13.03 0 12.67 0L0.67 0C0.3 0 0 0.3 0 0.67Z" stroke="#fff" stroke-dasharray="0 0"/>
  <path transform="translate(1.33333333 10)" d="M0,0L4.67,0C4.67,1.1 5.56,2 6.67,2C7.77,2 8.67,1.1 8.67,0L13.33,0" stroke="#fff" stroke-dasharray="0 0"/>
  <path fill-rule="evenodd" transform="translate(4.81811672 3.29583136)" d="M0.94,1.18L0,2.12L2.59,4.71L6.36,0.94L5.42,0L2.59,2.83L0.94,1.18Z" fill="#fff"/>
</svg>
