<svg xmlns="http://www.w3.org/2000/svg"  viewBox="0 0 16 16" class="design-iconfont">
  <path fill-rule="evenodd" transform="translate(2.00009148 1.33332812)" d="M6 12L6 9.17L12 3.17L12 0.67C12 0.49 11.93 0.32 11.8 0.19C11.68 0.07 11.51 0 11.33 0L0.67 0C0.3 0 8.88178e-16 0.3 8.88178e-16 0.67L8.88178e-16 12.67C8.88178e-16 13.03 0.3 13.33 0.67 13.33L11.33 13.33C11.51 13.33 11.68 13.26 11.8 13.14C11.93 13.01 12 12.84 12 12.67L12 8.83L8.83 12L6 12Z M7.332 9.72867L7.332 10.6687L8.272 10.6687L13.462 5.47867L12.522 4.53867L7.332 9.72867Z M2.66667 6.66667L2.66667 7.99667L5.99667 7.99667L5.99667 6.66667L2.66667 6.66667Z M2.66667 4L2.66667 5.33L7.99667 5.33L7.99667 4L2.66667 4Z" />
</svg>
