<svg xmlns="http://www.w3.org/2000/svg" fill="none" viewBox="0 0 14 14" class="design-iconfont">
  <path fill-rule="evenodd" transform="translate(1.16666667 2.04166667)" d="M8.75 11.67L9.92 11.67L9.92 9.92L11.67 9.92L11.67 8.75L8.75 8.75L8.75 11.67Z M2.92 0L1.75 0L1.75 1.75L0 1.75L0 2.92L2.92 2.92L2.92 0Z M10.3707 7.07012C11.9707 5.48012 11.9707 2.89013 10.3707 1.30013C8.78067 -0.299875 6.19067 -0.299875 4.60067 1.30013L3.77067 2.12013L4.60067 2.95012L5.42067 2.12013C6.16067 1.38012 7.23067 1.09012 8.24067 1.36012C9.25067 1.62012 10.0407 2.41013 10.3107 3.42013C10.5807 4.43012 10.2907 5.51012 9.55067 6.24012L8.72067 7.07012L9.55067 7.90013L10.3707 7.07012Z M2.11954 3.77067L1.29954 4.59067C-0.300458 6.19067 -0.300458 8.77067 1.29954 10.3707C2.88954 11.9607 5.47954 11.9607 7.06954 10.3707L7.89954 9.55067L7.06954 8.72067L6.24954 9.55067C5.50954 10.2907 4.42954 10.5807 3.41954 10.3107C2.40954 10.0407 1.62954 9.25067 1.35954 8.24067C1.08954 7.23067 1.37954 6.16067 2.11954 5.42067L2.94954 4.60067L2.11954 3.77067Z M3.35825 7.47825L4.18825 8.30825L8.30825 4.18825L7.47825 3.35825L3.35825 7.47825Z" fill="#5c6bbf"/>
</svg>
