<svg xmlns="http://www.w3.org/2000/svg" xmlns:xlink="http://www.w3.org/1999/xlink" width="122" height="130" viewBox="0 0 122 130" fill="none"><defs><rect id="path_0" x="0" y="0" width="122" height="130" /></defs><g opacity="1" transform="translate(0 0)  rotate(0 61 65)"><mask id="bg-mask-0" fill="white"><use xlink:href="#path_0"></use></mask><g mask="url(#bg-mask-0)" ><path id="分组 1" fill-rule="evenodd" style="fill:#FFFFFF" transform="translate(27.03149212696825 27.90689886135299)  rotate(0 44.59319545113721 47.80126702388927)" opacity="1" d="M67.28 0L4.89 0C2.21 0 0 2.09 0 4.66C0 7.21 2.2 9.32 4.89 9.32L67.28 9.32C69.98 9.32 72.18 7.21 72.18 4.66C72.18 2.1 69.98 0 67.28 0Z M0 32.5089C0 35.0588 2.2 37.1688 4.89 37.1688L34.03 37.1688C36.73 37.1688 38.94 35.0788 38.92 32.5089C38.92 29.9489 36.73 27.8489 34.03 27.8489L4.89 27.8489C2.21 27.8489 0 29.9389 0 32.5089Z M53.7245 84.7772C58.7145 84.7772 63.3645 83.3872 67.2545 80.9972C67.4845 81.4172 67.7645 81.8072 68.1345 82.1572L80.8345 94.2372C82.7445 96.0572 85.8545 96.0572 87.7545 94.2372C89.6645 92.4272 89.6645 89.4672 87.7545 87.6572L75.0545 75.5672C74.7345 75.2572 74.3845 74.9972 74.0045 74.8072C76.7645 71.0672 78.3845 66.5272 78.3845 61.6172C78.3845 48.8172 67.3445 38.4572 53.7245 38.4572C40.1145 38.4572 29.0745 48.8172 29.0745 61.6172C29.0745 74.4172 40.1145 84.7772 53.7245 84.7772Z M68.6663 61.6154C68.6663 53.8654 61.9763 47.5854 53.7263 47.5854C45.4763 47.5854 38.7863 53.8654 38.7863 61.6154C38.7863 69.3654 45.4763 75.6554 53.7263 75.6554C61.9863 75.6554 68.6663 69.3654 68.6663 61.6154Z " /><path id="路径 5" fill-rule="evenodd" style="fill:#FFFFFF" transform="translate(0 0)  rotate(0 61 65)" opacity="1" d="M122,64.94C122,64.77 121.98,64.61 121.97,64.43L121.97,18.58C121.97,8.36 117.76,0 107.03,0L19.52,0C8.78,0 0,8.36 0,18.58L0,111.42C0,121.64 8.78,130 19.52,130L73.21,130C75.93,130 78.12,127.91 78.12,125.34C78.12,122.79 75.96,120.71 73.27,120.68L18.94,120.68C13.57,120.68 9.18,116.5 9.18,111.4L9.18,18.72C9.18,13.61 13.57,9.43 18.94,9.43L102.38,9.43C107.74,9.43 112.14,13.61 112.14,18.72L112.14,64.93L112.18,64.93L112.18,64.94C112.18,67.51 114.38,69.6 117.09,69.6C119.8,69.6 122,67.51 122,64.94Z " /><path id="路径 6" fill-rule="evenodd" style="fill:#FFFFFF" transform="translate(112.16620844788804 78.85912020182222)  rotate(0 4.909272681829559 4.658406031712011)" opacity="1" d="M2.45,8.69C3.97,9.52 5.84,9.52 7.36,8.69C8.88,7.86 9.82,6.32 9.82,4.66C9.82,2.99 8.88,1.46 7.36,0.62C5.84,-0.21 3.97,-0.21 2.45,0.62C0.94,1.46 0,2.99 0,4.66C0,6.32 0.94,7.86 2.45,8.69Z " /></g></g></svg>