<svg xmlns="http://www.w3.org/2000/svg" fill="none" viewBox="0 0 16 17" class="design-iconfont">
  <path transform="translate(2 .99997965)" d="M0 13.33C0 13.7 0.3 14 0.67 14L11.33 14C11.7 14 12 13.7 12 13.33L12 5.33C12 4.97 11.7 4.67 11.33 4.67L10 4.67L10 4C10 1.79 8.21 0 6 0C3.79 0 2 1.79 2 4L2 4.67L0.67 4.67C0.3 4.67 0 4.97 0 5.33L0 13.33Z M8.66333 4.00333C8.66333 2.52333 7.47333 1.33333 6.00333 1.33333C4.52333 1.33333 3.33333 2.52333 3.33333 4.00333L3.33333 4.66333L8.66333 4.66333L8.66333 4.00333Z M5.33333 9.99667L6.66333 9.99667L6.66333 8.66667L5.33333 8.66667L5.33333 9.99667Z M2.66667 9.99667L3.99667 9.99667L3.99667 8.66667L2.66667 8.66667L2.66667 9.99667Z M8 9.99667L9.33 9.99667L9.33 8.66667L8 8.66667L8 9.99667Z" stroke="#fff" stroke-dasharray="0 0"/>
</svg>
