<svg xmlns="http://www.w3.org/2000/svg" xmlns:xlink="http://www.w3.org/1999/xlink" viewBox="0 0 14 14" class="design-iconfont">
  <defs>
    <rect id="0kceklih8__h7xi96bxja" x="0" y="0" width="62" height="30" rx="2"/>
    <mask id="0kceklih8__az86ybbt2b" maskContentUnits="userSpaceOnUse" maskUnits="objectBoundingBox" x="0" y="0" width="62" height="30">
      <use xlink:href="#0kceklih8__h7xi96bxja"/>
    </mask>
  </defs>
  <g transform="translate(-8 -8)" fill-rule="evenodd">
    <use stroke-opacity=".15" stroke="#000" mask="url(#0kceklih8__az86ybbt2b)" stroke-width="2" fill="#FFF" stroke-dasharray="0,0" xlink:href="#0kceklih8__h7xi96bxja"/>
    <path d="M11.67,1.75 C11.99,1.75 12.25,2.01 12.25,2.33 L12.25,2.33 L12.25,11.67 C12.25,11.99 11.99,12.25 11.67,12.25 L11.67,12.25 L2.33,12.25 C2.01,12.25 1.75,11.99 1.75,11.67 L1.75,11.67 L1.75,2.33 C1.75,2.01 2.01,1.75 2.33,1.75 L2.33,1.75 Z M7.58333333,4.08333333 L6.41333333,4.08333333 L6.41333333,6.41333333 L4.08333333,6.41333333 L4.08333333,7.58333333 L6.41333333,7.58333333 L6.41333333,9.91333333 L7.58333333,9.91333333 L7.58333333,7.58333333 L9.91333333,7.58333333 L9.91333333,6.41333333 L7.58333333,6.41333333 L7.58333333,4.08333333 Z"  transform="translate(8 8)"/>
  </g>
</svg>
