<svg xmlns="http://www.w3.org/2000/svg" xmlns:xlink="http://www.w3.org/1999/xlink" width="301" height="341" viewBox="0 0 301 341" fill="none"><defs><rect id="path_0" x="0" y="0" width="300.99999999999994" height="341" /></defs><g opacity="1" transform="translate(0 0)  rotate(0 150.49999999999997 170.5)"><mask id="bg-mask-0" fill="white"><use xlink:href="#path_0"></use></mask><g mask="url(#bg-mask-0)" ><path id="分组 1" fill-rule="evenodd" style="fill:#FFFFFF" transform="translate(0 0)  rotate(0 150.49999999999997 170.5)" opacity="1" d="M18.17 269.235L132.33 336.065C143.57 342.645 157.43 342.645 168.67 336.065L282.83 269.235C294.07 262.655 301 250.495 301 237.325L301 103.675C301 90.5149 294.07 78.3449 282.83 71.7649L168.67 4.94486C157.43 -1.64514 143.57 -1.64514 132.33 4.94486L18.17 71.7649C6.93 78.3449 1.83018e-06 90.5149 1.83018e-06 103.675L1.83018e-06 237.325C1.83018e-06 250.495 6.93 262.655 18.17 269.235Z M271.589 249.487C275.869 246.977 278.509 242.347 278.509 237.327L278.509 103.677C278.509 98.6566 275.869 94.0266 271.589 91.5166L157.419 24.6866C153.139 22.1766 147.859 22.1766 143.579 24.6866L29.4093 91.5166C25.1293 94.0266 22.4893 98.6566 22.4893 103.677L22.4893 237.327C22.4893 242.347 25.1293 246.977 29.4093 249.487L143.579 316.317C147.859 318.827 153.139 318.827 157.419 316.317L271.589 249.487Z M218.075 143.886C223.445 140.726 225.285 133.756 222.165 128.306C219.055 122.856 212.175 120.996 206.805 124.156L150.405 157.266L94.1951 124.266C88.8251 121.116 81.9451 122.976 78.8351 128.426C75.7151 133.866 77.5551 140.846 82.9251 143.996L139.255 177.076L139.255 244.016C139.255 250.316 144.285 255.416 150.495 255.416C156.715 255.416 161.745 250.316 161.745 244.016L161.745 176.956L218.075 143.886Z " /></g></g></svg>