<svg xmlns="http://www.w3.org/2000/svg" fill="none" viewBox="0 0 17 16" class="design-iconfont">
  <g stroke="#fff" stroke-dasharray="0 0">
    <path transform="translate(.99997074 1.66666667)" d="M6 0C9.31 0 12 1.34 12 3C12 4.66 9.31 6 6 6C2.69 6 0 4.66 0 3C0 1.34 2.69 0 6 0Z M0 4.33333C0 5.99333 2.63 7.33333 5.88 7.33333C6.5827 7.33333 7.1503 7.30996 7.62514 7.27332C7.50295 7.50143 7.4085 7.74892 7.34621 8.01248C7.05621 8.20248 6.81621 8.44248 6.62621 8.72248C6.5006 8.90899 6.39962 9.11144 6.32602 9.32487C6.17878 9.33048 6.03004 9.33333 5.88 9.33333C2.63 9.33333 0 7.99333 0 6.33333L0 4.33333Z M6.23293 10.6644C6.15565 10.6659 6.078 10.6667 6 10.6667C2.69 10.6667 0 9.32667 0 7.66667L0 9.66667C0 11.3267 2.69 12.6667 6 12.6667C6.63533 12.6667 7.24781 12.6173 7.82282 12.5258C7.52056 12.4071 7.2526 12.2378 7.02621 12.0325C6.62349 11.6735 6.34341 11.1996 6.23293 10.6644Z"/>
    <path transform="translate(8.32514129 7.73741424)" d="M3.67,0C2.38,0 1.33,1.04 1.33,2.33L1.34,2.4C0.48,2.64 -0.09,3.47 0.01,4.36C0.11,5.25 0.83,5.94 1.72,6L1.83,6L5.5,6L5.61,6C6.51,5.94 7.23,5.25 7.33,4.36C7.42,3.47 6.86,2.64 6,2.4L6,2.33C6,1.04 4.96,0 3.67,0Z"/>
  </g>
</svg>
