<svg xmlns="http://www.w3.org/2000/svg" fill="none" viewBox="0 0 16 16" class="design-iconfont">
  <path fill-rule="evenodd" transform="translate(.00005371)" d="M8,16L8,16C10.12,16 12.16,15.16 13.66,13.66C15.16,12.16 16,10.12 16,8L16,8C16,5.88 15.16,3.84 13.66,2.34C12.16,0.84 10.12,0 8,0L8,0C5.88,0 3.84,0.84 2.34,2.34C0.84,3.84 0,5.88 0,8L0,8C0,10.12 0.84,12.16 2.34,13.66C3.84,15.16 5.88,16 8,16Z" fill="#515ab7"/>
  <path fill-rule="evenodd" transform="translate(2.47918123 2.47912752)" d="M0.69,5.52C0.69,2.83 2.83,0.69 5.52,0.69C6.35,0.69 7.25,0.9 7.94,1.38C8.14,1.45 8.35,1.38 8.42,1.24C8.49,1.04 8.42,0.83 8.28,0.76C7.45,0.28 6.49,0 5.52,0C2.48,0 0,2.48 0,5.52C0,8.56 2.48,11.04 5.52,11.04C8.56,11.04 11.04,8.56 11.04,5.52C11.04,5.04 10.97,4.49 10.77,4C10.7,3.86 10.56,3.73 10.35,3.8C10.21,3.86 10.08,4 10.15,4.21C10.28,4.62 10.35,5.11 10.35,5.52C10.35,8.21 8.21,10.35 5.52,10.35C2.83,10.35 0.69,8.21 0.69,5.52Z" fill="#fff"/>
  <path fill-rule="evenodd" transform="translate(5.17787061 5)" d="M4.33282 0.48C3.54282 -0.16 2.45282 -0.16 1.66282 0.48L2.55282 2.38C2.68282 2.3 2.84282 2.26 3.00282 2.26C3.15282 2.26 3.31282 2.3 3.45282 2.38L4.33282 0.48Z M4.6425 5.99797C5.5625 5.58798 6.1025 4.57797 5.9825 3.52798L4.0025 3.39797C3.9825 3.73797 3.8125 4.03797 3.5525 4.22797L4.6425 5.99797Z M0.02 3.52798C-0.1 4.57797 0.44 5.58798 1.35 5.99797L2.45 4.22797C2.18 4.03797 2.02 3.73797 2 3.39797L0.02 3.52798Z M3.49627 3.33805C3.49627 3.03805 3.27627 2.79805 2.99627 2.79805C2.81627 2.79805 2.65627 2.89805 2.56627 3.06805C2.47627 3.22805 2.47627 3.43805 2.56627 3.59805C2.65627 3.76805 2.81627 3.86805 2.99627 3.86805C3.27627 3.86805 3.49627 3.62805 3.49627 3.33805Z" fill="#fff"/>
</svg>
