<svg xmlns="http://www.w3.org/2000/svg" fill="none" viewBox="0 0 16 16" class="design-iconfont">
  <path fill-rule="evenodd" d="M8,16L8,16C10.12,16 12.16,15.16 13.66,13.66C15.16,12.16 16,10.12 16,8L16,8C16,5.88 15.16,3.84 13.66,2.34C12.16,0.84 10.12,0 8,0L8,0C5.88,0 3.84,0.84 2.34,2.34C0.84,3.84 0,5.88 0,8L0,8C0,10.12 0.84,12.16 2.34,13.66C3.84,15.16 5.88,16 8,16Z" fill="#51b7ad"/>
  <g fill-rule="evenodd" fill="#fff">
    <path transform="translate(4.86375323 5.23956294)" d="M3.8 1.65C4 1.47 4.16 1.24 4.16 0.94C4.16 0.41 3.72 0 3.18 0C2.63 0 2.2 0.45 2.2 0.94C2.2 1.16 2.27 1.39 2.43 1.58L1.21 3.68C1.14 3.68 1.06 3.64 0.98 3.64C0.43 3.64 0 4.06 0 4.58C0 5.11 0.43 5.52 0.98 5.52C1.45 5.52 1.84 5.18 1.92 4.73L4.35 4.73C4.43 5.18 4.82 5.52 5.29 5.52C5.84 5.52 6.27 5.11 6.27 4.58C6.27 4.06 5.88 3.64 5.33 3.64C5.21 3.64 5.1 3.68 4.98 3.72L3.8 1.65Z M4.66807 3.90253L3.44807 1.84253C3.36807 1.88253 3.25807 1.88253 3.17807 1.88253C3.05807 1.88253 2.89807 1.88253 2.78807 1.80253L1.60807 3.83253C1.76807 3.94253 1.91807 4.13253 1.95807 4.35253L4.42807 4.35253C4.46807 4.17253 4.54807 4.02253 4.66807 3.90253Z"/>
    <path transform="translate(2.47912752 2.47912752)" d="M5.52,0.69C6.35,0.69 7.25,0.9 7.94,1.38C8.14,1.45 8.35,1.38 8.42,1.24C8.49,1.04 8.42,0.83 8.28,0.76C7.45,0.28 6.49,0 5.52,0C2.48,0 0,2.48 0,5.52C0,8.56 2.48,11.04 5.52,11.04C8.56,11.04 11.04,8.56 11.04,5.52C11.04,5.04 10.97,4.49 10.77,4C10.7,3.86 10.56,3.73 10.35,3.8C10.21,3.86 10.08,4 10.15,4.21C10.28,4.62 10.35,5.11 10.35,5.52C10.35,8.21 8.21,10.35 5.52,10.35C2.83,10.35 0.69,8.21 0.69,5.52C0.69,2.83 2.83,0.69 5.52,0.69Z"/>
  </g>
</svg>
