<svg xmlns="http://www.w3.org/2000/svg" fill="none" viewBox="0 0 14 14" class="design-iconfont">
  <path fill-rule="evenodd" transform="translate(1 1)" d="M11.67 5.83C11.67 2.61 9.06 0 5.83 0C2.61 0 0 2.61 0 5.83C0 9.06 2.61 11.67 5.83 11.67C9.06 11.67 11.67 9.06 11.67 5.83Z M4.66667 7.73285C4.66667 7.81285 4.71667 7.89285 4.78667 7.93285C4.86667 7.97285 4.95667 7.97285 5.02667 7.92285L7.87667 6.02285C7.93667 5.98285 7.97667 5.91285 7.97667 5.83285C7.97667 5.75285 7.93667 5.68285 7.87667 5.64285L5.02667 3.74285C4.95667 3.69285 4.86667 3.69285 4.78667 3.73285C4.71667 3.77285 4.66667 3.85285 4.66667 3.93285L4.66667 7.73285Z" fill="#1e9955"/>
</svg>
